<svg width="12" height="12" viewBox="0 0 12 12" fill="none" xmlns="http://www.w3.org/2000/svg">
<path fill-rule="evenodd" clip-rule="evenodd" d="M5.99626 1.04904e-05C5.81071 -0.0007658 5.6249 0.0752506 5.49142 0.228023L0.831396 5.56136C0.589137 5.83862 0.617513 6.25977 0.894775 6.50203C1.17204 6.74429 1.59319 6.71592 1.83545 6.43865L5.33343 2.43526L5.33343 11.3333C5.33343 11.7015 5.63191 12 6.0001 12C6.36829 12 6.66676 11.7015 6.66676 11.3333L6.66676 2.44666L10.1653 6.43936C10.408 6.71628 10.8292 6.74406 11.1061 6.50141C11.383 6.25876 11.4108 5.83757 11.1682 5.56065L6.55184 0.292349C6.4319 0.115901 6.22953 0 6.0001 0C5.99882 0 5.99754 2.86102e-06 5.99626 1.04904e-05Z" fill="#3DD598"/>
</svg>
