<svg width="12" height="12" viewBox="0 0 12 12" fill="none" xmlns="http://www.w3.org/2000/svg">
<path fill-rule="evenodd" clip-rule="evenodd" d="M6.00374 12C6.18929 12.0008 6.3751 11.9247 6.50858 11.772L11.1686 6.43864C11.4109 6.16138 11.3825 5.74023 11.1052 5.49797C10.828 5.25571 10.4068 5.28408 10.1645 5.56135L6.66657 9.56474L6.66657 0.666666C6.66657 0.298476 6.36809 -4.34068e-07 5.9999 -4.66256e-07C5.63171 -4.98444e-07 5.33324 0.298476 5.33324 0.666666L5.33324 9.55334L1.83465 5.56064C1.592 5.28372 1.17081 5.25594 0.893886 5.49859C0.616966 5.74124 0.589185 6.16243 0.831835 6.43935L5.44816 11.7077C5.5681 11.8841 5.77047 12 5.9999 12C6.00118 12 6.00246 12 6.00374 12Z" fill="#ED1C24"/>
</svg>
