<svg width="14" height="14" viewBox="0 0 14 14" fill="none" xmlns="http://www.w3.org/2000/svg">
<path d="M6 3.33333H7.33333V4.66667H6V3.33333Z" fill="black" fill-opacity="0.54"/>
<path d="M6 6H7.33333V10H6V6Z" fill="black" fill-opacity="0.54"/>
<path fill-rule="evenodd" clip-rule="evenodd" d="M0 6.66667C0 2.98667 2.98665 0 6.66667 0C10.3467 0 13.3333 2.98667 13.3333 6.66667C13.3333 10.3467 10.3467 13.3333 6.66667 13.3333C2.98665 13.3333 0 10.3467 0 6.66667ZM1.33333 6.66667C1.33333 9.60667 3.72664 12 6.66667 12C9.60669 12 12 9.60667 12 6.66667C12 3.72666 9.60669 1.33333 6.66667 1.33333C3.72664 1.33333 1.33333 3.72666 1.33333 6.66667Z" fill="black" fill-opacity="0.54"/>
</svg>
