<svg width="24" height="18" viewBox="0 0 24 18" fill="none" xmlns="http://www.w3.org/2000/svg">
<path fill-rule="evenodd" clip-rule="evenodd" d="M2.36504 9.84311C2.14091 9.49606 1.96974 9.20589 1.85337 9C1.96974 8.79411 2.14091 8.50394 2.36504 8.15689C2.8319 7.43402 3.52363 6.47205 4.42279 5.51296C6.23477 3.58017 8.80027 1.75 12.0006 1.75C15.201 1.75 17.7665 3.58017 19.5785 5.51296C20.4776 6.47205 21.1694 7.43402 21.6362 8.15689C21.8604 8.50394 22.0315 8.79411 22.1479 9C22.0315 9.20589 21.8604 9.49606 21.6362 9.84311C21.1694 10.566 20.4776 11.5279 19.5785 12.487C17.7665 14.4198 15.201 16.25 12.0006 16.25C8.80027 16.25 6.23477 14.4198 4.42279 12.487C3.52363 11.5279 2.8319 10.566 2.36504 9.84311ZM23.6712 8.66404C23.6713 8.66433 23.6715 8.66459 23.0006 9C23.6715 9.33541 23.6713 9.33567 23.6712 9.33596L23.6708 9.3367L23.6698 9.33871L23.6667 9.34492L23.656 9.36587C23.6469 9.38357 23.6338 9.40865 23.6169 9.44063C23.5831 9.50459 23.5336 9.59617 23.4688 9.71145C23.3391 9.94189 23.1477 10.2676 22.8963 10.6569C22.3944 11.434 21.6486 12.4721 20.6728 13.513C18.7348 15.5802 15.8003 17.75 12.0006 17.75C8.201 17.75 5.2665 15.5802 3.32848 13.513C2.35264 12.4721 1.60687 11.434 1.10498 10.6569C0.853569 10.2676 0.662127 9.94189 0.5325 9.71145C0.467658 9.59617 0.418199 9.50459 0.384358 9.44063C0.367434 9.40865 0.354409 9.38357 0.34531 9.36587L0.334609 9.34492L0.331472 9.33871L0.330458 9.3367L0.33009 9.33596C0.329945 9.33567 0.329814 9.33541 1.00063 9C0.329814 8.66459 0.329945 8.66433 0.33009 8.66404L0.330458 8.66331L0.331472 8.66129L0.334609 8.65508L0.34531 8.63413C0.354409 8.61643 0.367434 8.59135 0.384358 8.55937C0.418199 8.49541 0.467658 8.40383 0.5325 8.28855C0.662127 8.05811 0.853569 7.73239 1.10498 7.34311C1.60687 6.56598 2.35264 5.52795 3.32848 4.48704C5.2665 2.41983 8.201 0.25 12.0006 0.25C15.8003 0.25 18.7348 2.41983 20.6728 4.48704C21.6486 5.52795 22.3944 6.56598 22.8963 7.34311C23.1477 7.73239 23.3391 8.05811 23.4688 8.28855C23.5336 8.40383 23.5831 8.49541 23.6169 8.55937C23.6338 8.59135 23.6469 8.61643 23.656 8.63413L23.6667 8.65508L23.6698 8.66129L23.6708 8.66331L23.6712 8.66404ZM1.00063 9L0.329814 9.33541L0.162109 9L0.329814 8.66459L1.00063 9ZM23.0006 9L23.6715 8.66459L23.8392 9L23.6715 9.33541L23.0006 9ZM9.75064 9C9.75064 7.75736 10.758 6.75 12.0006 6.75C13.2433 6.75 14.2506 7.75736 14.2506 9C14.2506 10.2426 13.2433 11.25 12.0006 11.25C10.758 11.25 9.75064 10.2426 9.75064 9ZM12.0006 5.25C9.92957 5.25 8.25064 6.92893 8.25064 9C8.25064 11.0711 9.92957 12.75 12.0006 12.75C14.0717 12.75 15.7506 11.0711 15.7506 9C15.7506 6.92893 14.0717 5.25 12.0006 5.25Z" fill="#CECECE"/>
</svg>
