<svg width="19" height="19" viewBox="0 0 19 19" fill="none" xmlns="http://www.w3.org/2000/svg">
    <g clip-path="url(#clip0)">
        <path fill-rule="evenodd" clip-rule="evenodd" d="M9.96285 0.175592L17.8795 7.18413C18.0294 7.31665 18.1151 7.5071 18.1152 7.70712V18.3015C18.1151 18.6873 17.8025 19 17.4166 19H1.58331C1.19749 19 0.884766 18.6873 0.884766 18.3015V7.70712C0.884766 7.5071 0.970451 7.31661 1.12019 7.18413L9.03683 0.175592C9.30112 -0.058642 9.69856 -0.0584194 9.96285 0.175592ZM12.5497 17.603H16.7181V8.02169L9.49995 1.63154L2.28186 8.02169V17.603H6.44922V12.1312C6.44922 11.7453 6.7619 11.4326 7.14773 11.4326H11.8511C12.237 11.4326 12.5497 11.7453 12.5497 12.1312V17.603ZM11.1524 17.603V12.8297H7.84627V17.603H11.1524Z" fill="#ED1C24"/>
    </g>
    <defs>
        <clipPath id="clip0">
            <rect width="19" height="19" fill="white"/>
        </clipPath>
    </defs>
</svg>
