<svg width="164" height="29" viewBox="0 0 164 29" fill="none" xmlns="http://www.w3.org/2000/svg">
    <g clip-path="url(#clip0)">
        <path d="M27.7019 23.2734L22.162 28.8721L1.66867 28.8735L0 27.1864V6.47342L5.54072 0.873535H26.0335L27.7019 2.55982V23.2734Z" fill="#ED1C24"/>
        <path d="M26.0354 0.873535L19.8047 7.17108V16.3631L14.7007 9.27421H3.94179V11.5018H7.11326V19.999L0.00244141 27.1864V28.8735L1.67055 28.8721L9.50317 20.9555V11.5018H12.6735V20.4726H15.033V13.3834L20.1373 20.4726H22.1639V8.15915L27.7041 2.55982L27.7038 0.873535H26.0354Z" fill="white"/>
        <path d="M36.5659 11.9937H33.2419V9.27393H42.9616V11.9937H39.6379V20.4723H36.5662V11.9937H36.5659Z" fill="black"/>
        <path d="M44.5764 9.27441H53.4877V11.9129H47.6155V13.6105H52.9334V16.0588H47.6155V17.8337H53.5673V20.4731H44.5764V9.27441Z" fill="black"/>
        <path d="M58.6227 14.7778L54.981 9.27441H58.5118L60.4743 12.4257L62.454 9.27441H65.9036L62.2641 14.7459L66.063 20.4728H62.5324L60.4103 17.0977L58.2742 20.4728H54.8232L58.6227 14.7778Z" fill="black"/>
        <path d="M67.5156 9.27441H70.5866V13.466H74.5284V9.27441H77.5993V20.4728H74.5284V16.2168H70.5866V20.4728H67.5156V9.27441Z" fill="black"/>
        <path d="M79.4417 14.8738C79.4417 11.6573 82.0061 9.0498 85.4258 9.0498C88.8441 9.0498 91.377 11.6259 91.377 14.8738C91.377 18.0897 88.8125 20.6975 85.3942 20.6975C81.9734 20.6977 79.4417 18.1208 79.4417 14.8738ZM88.2424 14.8738C88.2424 13.2575 87.0872 11.8489 85.394 11.8489C83.7147 11.8489 82.5913 13.225 82.5913 14.8738C82.5913 16.4901 83.7476 17.8961 85.4255 17.8961C87.1179 17.8964 88.2424 16.5217 88.2424 14.8738Z" fill="black"/>
        <path d="M93.2366 9.27441H96.3092V13.466H100.249V9.27441H103.321V20.4728H100.249V16.2168H96.3092V20.4728H93.2366V9.27441Z" fill="black"/>
        <path d="M105.71 9.27441H108.75V15.577L113.041 9.27441H115.905V20.4728H112.865V14.1699L108.575 20.4728H105.71V9.27441Z" fill="black"/>
        <path d="M118.295 9.27441H121.365V13.8185L125.18 9.27441H128.821L124.627 14.0894L128.963 20.4731H125.276L122.49 16.3142L121.365 17.5772V20.4733H118.295V9.27441Z" fill="black"/>
        <path d="M128.988 14.8738C128.988 11.6573 131.551 9.0498 134.97 9.0498C138.389 9.0498 140.923 11.6259 140.923 14.8738C140.923 18.0897 138.358 20.6975 134.939 20.6975C131.52 20.6977 128.988 18.1208 128.988 14.8738ZM137.787 14.8738C137.787 13.2575 136.633 11.8489 134.94 11.8489C133.26 11.8489 132.137 13.225 132.137 14.8738C132.137 16.4901 133.292 17.8961 134.97 17.8961C136.664 17.8964 137.787 16.5217 137.787 14.8738Z" fill="black"/>
        <path d="M154.644 9.27441H157.714V12.7929H159.392C162.052 12.7929 163.999 14.0739 163.999 16.6001C163.999 19.0176 162.258 20.4731 159.551 20.4731H154.644V9.27441ZM159.314 17.8656C160.326 17.8656 160.928 17.4013 160.928 16.5216C160.928 15.7379 160.326 15.2257 159.329 15.2257H157.714V17.8656H159.314Z" fill="black"/>
        <path d="M143.642 9.27441V14.1871C143.642 15.3482 143.525 17.0277 142.767 17.6218C142.411 17.9 141.824 18.1134 141.452 18.1134V20.7536H141.743C142.805 20.7536 143.995 20.3221 144.452 20.0288C146.304 18.8404 146.533 16.5798 146.533 14.0262V11.9939H149.183V20.4725H152.254V9.27441H143.642Z" fill="black"/>
    </g>
    <defs>
        <clipPath id="clip0">
            <rect width="164" height="28" fill="white" transform="translate(0 0.873535)"/>
        </clipPath>
    </defs>
</svg>
