<svg width="24" height="24" viewBox="0 0 24 24" fill="none" xmlns="http://www.w3.org/2000/svg">
    <path fill-rule="evenodd" clip-rule="evenodd" d="M22 19.1818V5C22 3.34315 20.6569 2 19 2H5C3.34315 2 2 3.34315 2 5V19.1818C2 20.736 3.25134 22 4.8 22H19.2C20.7487 22 22 20.736 22 19.1818ZM19 18C19.3506 18 19.6872 17.9398 20 17.8293V19.1818C20 19.6359 19.6396 20 19.2 20H4.8C4.36043 20 4 19.6359 4 19.1818V17.8293C4.31278 17.9398 4.64936 18 5 18H19ZM20 15V5C20 4.44772 19.5523 4 19 4H5C4.44772 4 4 4.44772 4 5V15C4 15.5523 4.44772 16 5 16H19C19.5523 16 20 15.5523 20 15ZM9.22 12.92C9.27333 12.9733 9.33667 13 9.41 13H11.47C11.5433 13 11.6067 12.9733 11.66 12.92C11.7133 12.8667 11.74 12.8033 11.74 12.73V12.13H12.57C12.6433 12.13 12.7067 12.1033 12.76 12.05C12.8133 11.9967 12.84 11.9333 12.84 11.86V11.34C12.84 11.2667 12.8133 11.2033 12.76 11.15C12.7067 11.0967 12.6433 11.07 12.57 11.07H11.74V10.62H12.44C13.38 10.62 14.1167 10.4433 14.65 10.09C15.1833 9.73 15.45 9.18333 15.45 8.45C15.45 7.64333 15.18 7.03333 14.64 6.62C14.1067 6.20667 13.3733 6 12.44 6H9.41C9.33667 6 9.27333 6.02667 9.22 6.08C9.16667 6.13333 9.14 6.19667 9.14 6.27V8.97H8.42C8.34667 8.97 8.28333 8.99667 8.23 9.05C8.17667 9.10333 8.15 9.16667 8.15 9.24V10.35C8.15 10.4233 8.17667 10.4867 8.23 10.54C8.28333 10.5933 8.34667 10.62 8.42 10.62H9.14V11.07H8.42C8.34667 11.07 8.28333 11.0967 8.23 11.15C8.17667 11.2033 8.15 11.2667 8.15 11.34V11.86C8.15 11.9333 8.17667 11.9967 8.23 12.05C8.28333 12.1033 8.34667 12.13 8.42 12.13H9.14V12.73C9.14 12.8033 9.16667 12.8667 9.22 12.92ZM12.71 8.84C12.6167 8.92667 12.51 8.97 12.39 8.97H11.69V7.86H12.39C12.55 7.86 12.6667 7.91667 12.74 8.03C12.8133 8.14333 12.85 8.27667 12.85 8.43C12.85 8.61 12.8033 8.74667 12.71 8.84Z" fill="#ED1C24"/>
</svg>
