<svg width="18" height="18" viewBox="0 0 18 18" fill="none" xmlns="http://www.w3.org/2000/svg">
    <path d="M1 2C1 1.44772 1.44772 1 2 1H6C6.55228 1 7 1.44772 7 2V9C7 9.55228 6.55228 10 6 10H2C1.44772 10 1 9.55228 1 9V2Z" stroke="#ED1C24" stroke-width="2"/>
    <path d="M1 15C1 14.4477 1.44772 14 2 14H6C6.55228 14 7 14.4477 7 15V16C7 16.5523 6.55228 17 6 17H2C1.44772 17 1 16.5523 1 16V15Z" stroke="#ED1C24" stroke-width="2"/>
    <path d="M11 2C11 1.44772 11.4477 1 12 1H16C16.5523 1 17 1.44772 17 2V3C17 3.55228 16.5523 4 16 4H12C11.4477 4 11 3.55228 11 3V2Z" stroke="#ED1C24" stroke-width="2"/>
    <path d="M11 9C11 8.44772 11.4477 8 12 8H16C16.5523 8 17 8.44772 17 9V16C17 16.5523 16.5523 17 16 17H12C11.4477 17 11 16.5523 11 16V9Z" stroke="#ED1C24" stroke-width="2"/>
</svg>
