<svg width="20" height="20" viewBox="0 0 20 20" fill="none" xmlns="http://www.w3.org/2000/svg">
    <path fill-rule="evenodd" clip-rule="evenodd" d="M3.9025 14.6974C0.921498 11.7164 0.921498 6.88326 3.9025 3.90226C6.8835 0.921253 11.7167 0.921253 14.6977 3.90226C17.4225 6.62705 17.6566 10.8993 15.4002 13.8901L18.412 16.9019L17.2335 18.0804L14.2577 15.1046C11.2587 17.6716 6.74095 17.5359 3.9025 14.6974ZM13.5192 5.08077C11.189 2.75064 7.41114 2.75064 5.08101 5.08077C2.75088 7.4109 2.75088 11.1888 5.08101 13.5189C7.41114 15.849 11.189 15.849 13.5192 13.5189C15.8493 11.1888 15.8493 7.4109 13.5192 5.08077Z" fill="#ED1C24"/>
</svg>
