<svg width="52" height="11" viewBox="0 0 52 11" fill="none" xmlns="http://www.w3.org/2000/svg">
    <path d="M30.1084 7.86446H24.4816L23.2696 10.6855H22.1587L26.7756 0.125488H27.8288L32.4457 10.6855H31.3203L30.1084 7.86446ZM29.7188 6.95932L27.295 1.28709L24.8711 6.95932H29.7188Z" fill="#494949"/>
    <path d="M47.1332 1.09097H43.584V0.125488H51.7501V1.09097H48.2009V10.6855H47.1332V1.09097Z" fill="#494949"/>
    <path d="M41.0132 10.6855L38.7047 7.2912C38.445 7.32137 38.1757 7.33646 37.8968 7.33646H35.1844V10.6855H34.1167V0.125488H37.8968C39.1856 0.125488 40.1956 0.447316 40.9266 1.09097C41.6576 1.73463 42.0231 2.61966 42.0231 3.74606C42.0231 4.57075 41.8211 5.26972 41.4171 5.84297C41.0228 6.40617 40.4553 6.81349 39.7147 7.06492L42.1818 10.6855H41.0132ZM37.8679 6.38606C38.8682 6.38606 39.6329 6.15475 40.1619 5.69212C40.6909 5.22949 40.9555 4.5808 40.9555 3.74606C40.9555 2.8912 40.6909 2.23749 40.1619 1.78492C39.6329 1.32229 38.8682 1.09097 37.8679 1.09097H35.1844V6.38606H37.8679Z" fill="#494949"/>
    <path d="M17.8879 10.6855L15.4497 7.01966L13.0547 10.6855H10.3711L14.1079 5.31497L10.5587 0.125488H13.2134L15.5362 3.54995L17.8158 0.125488H20.3407L16.8203 5.22446L20.5859 10.6855H17.8879Z" fill="#222222"/>
    <path d="M4.78257 10.8665C3.33979 10.8665 2.21444 10.4491 1.40649 9.6144C0.608154 8.77966 0.208984 7.58789 0.208984 6.03909V0.125488H2.54628V5.94857C2.54628 7.83932 3.29651 8.78469 4.79699 8.78469C5.528 8.78469 6.08587 8.5584 6.47061 8.10583C6.85535 7.6432 7.04772 6.92412 7.04772 5.94857V0.125488H9.35616V6.03909C9.35616 7.58789 8.95219 8.77966 8.14423 9.6144C7.3459 10.4491 6.22534 10.8665 4.78257 10.8665Z" fill="#222222"/>
</svg>
