<svg width="254" height="171" viewBox="0 0 254 171" fill="none" xmlns="http://www.w3.org/2000/svg">
    <path d="M0 10C0 4.47716 4.47715 0 10 0H243C248.523 0 253 4.47715 253 10V171H0V10Z" fill="#ECECEC"/>
    <mask id="mask0" mask-type="alpha" maskUnits="userSpaceOnUse" x="1" y="0" width="253" height="171">
        <path d="M1 10C1 4.47716 5.47715 0 11 0H244C249.523 0 254 4.47715 254 10V171H1V10Z" fill="#EAE9E8"/>
    </mask>
    <g mask="url(#mask0)">
        <rect x="116.109" y="-20" width="30" height="264.728" transform="rotate(36.8771 116.109 -20)" fill="#F4F4F4"/>
        <rect x="45.8632" y="-20" width="30" height="264.728" transform="rotate(36.8771 45.8632 -20)" fill="#F4F4F4"/>
        <rect x="187.97" y="-20" width="30" height="264.728" transform="rotate(36.8771 187.97 -20)" fill="#F4F4F4"/>
        <rect x="259.831" y="-20" width="30" height="264.728" transform="rotate(36.8771 259.831 -20)" fill="#F4F4F4"/>
        <rect x="331.692" y="-20" width="30" height="264.728" transform="rotate(36.8771 331.692 -20)" fill="#F4F4F4"/>
        <path d="M127.288 78.1983H119.533V85.9525H127.288V78.1983Z" fill="#92929D"/>
        <path d="M137.459 78.1983H129.704V85.9525H137.459V78.1983Z" fill="#92929D"/>
        <path d="M127.288 88.3688H119.533V96.1229H127.288V88.3688Z" fill="#92929D"/>
        <path d="M137.459 88.3688H129.704V96.1229H137.459V88.3688Z" fill="#92929D"/>
        <path d="M90.8535 100V79.2759L104.307 65.8236L128.496 41.6336L152.687 65.8236L166.139 79.2759V100H172.22V76.2332L128.183 33L84.7733 76.2332V100H90.8535Z" fill="#92929D"/>
        <path d="M100.939 100V81.412L110.786 71.5637L128.496 53.8542L146.206 71.5637L156.054 81.412V100H163.314V80.4455L128.496 45.6278L93.6791 80.4455V100H100.939Z" fill="#C1C1C1"/>
        <path d="M79.8956 38.8091V45.0414H86.204V66.4229L108.33 45.0414L115.434 38.8091H79.8956Z" fill="#92929D"/>
        <path d="M90.0251 127H87.9191V121.762H81.6731V127H79.5671V114.994H81.6731V119.908H87.9191V114.994H90.0251V127ZM101.801 127H93.5749V114.994H101.801V116.848H95.6809V119.962H101.675V121.816H95.6809V125.146H101.801V127ZM109.932 127H107.826V116.848H104.19V114.994H113.568V116.848H109.932V127ZM129.247 127H127.141V125.812C125.353 125.668 123.955 125.176 122.947 124.336C121.939 123.484 121.435 122.374 121.435 121.006C121.435 119.65 121.939 118.552 122.947 117.712C123.955 116.86 125.353 116.362 127.141 116.218V114.994H129.247V116.2C131.023 116.344 132.415 116.842 133.423 117.694C134.443 118.546 134.953 119.65 134.953 121.006C134.953 122.374 134.443 123.484 133.423 124.336C132.415 125.176 131.023 125.668 129.247 125.812V127ZM132.793 121.006C132.793 120.214 132.487 119.56 131.875 119.044C131.263 118.528 130.387 118.21 129.247 118.09V123.922C130.387 123.802 131.263 123.49 131.875 122.986C132.487 122.47 132.793 121.81 132.793 121.006ZM124.513 119.044C123.901 119.56 123.595 120.214 123.595 121.006C123.595 121.798 123.901 122.452 124.513 122.968C125.125 123.484 126.001 123.802 127.141 123.922V118.09C126.001 118.21 125.125 118.528 124.513 119.044ZM147.995 125.47C146.843 126.634 145.373 127.216 143.585 127.216C141.797 127.216 140.327 126.634 139.175 125.47C138.023 124.294 137.447 122.806 137.447 121.006C137.447 119.206 138.023 117.724 139.175 116.56C140.327 115.384 141.797 114.796 143.585 114.796C145.373 114.796 146.843 115.384 147.995 116.56C149.147 117.724 149.723 119.206 149.723 121.006C149.723 122.806 149.147 124.294 147.995 125.47ZM143.585 125.344C144.773 125.344 145.733 124.936 146.465 124.12C147.197 123.292 147.563 122.254 147.563 121.006C147.563 119.746 147.197 118.708 146.465 117.892C145.733 117.076 144.773 116.668 143.585 116.668C142.385 116.668 141.419 117.076 140.687 117.892C139.967 118.708 139.607 119.746 139.607 121.006C139.607 122.266 139.967 123.304 140.687 124.12C141.419 124.936 142.385 125.344 143.585 125.344ZM157.262 127H155.156V116.848H151.52V114.994H160.898V116.848H157.262V127ZM173.233 125.47C172.081 126.634 170.611 127.216 168.823 127.216C167.035 127.216 165.565 126.634 164.413 125.47C163.261 124.294 162.685 122.806 162.685 121.006C162.685 119.206 163.261 117.724 164.413 116.56C165.565 115.384 167.035 114.796 168.823 114.796C170.611 114.796 172.081 115.384 173.233 116.56C174.385 117.724 174.961 119.206 174.961 121.006C174.961 122.806 174.385 124.294 173.233 125.47ZM168.823 125.344C170.011 125.344 170.971 124.936 171.703 124.12C172.435 123.292 172.801 122.254 172.801 121.006C172.801 119.746 172.435 118.708 171.703 117.892C170.971 117.076 170.011 116.668 168.823 116.668C167.623 116.668 166.657 117.076 165.925 117.892C165.205 118.708 164.845 119.746 164.845 121.006C164.845 122.266 165.205 123.304 165.925 124.12C166.657 124.936 167.623 125.344 168.823 125.344Z" fill="#92929D"/>
    </g>
</svg>
